<svg width="107" height="64" viewBox="0 0 107 64" fill="none" xmlns="http://www.w3.org/2000/svg">
<path d="M38.2919 0C32.1143 7.31093 29.0533 16.8112 29.7823 26.411C30.5112 36.0107 34.9703 44.9237 42.1787 51.1891C48.3563 43.8782 51.4173 34.3779 50.6884 24.7782C49.9594 15.1784 45.5003 6.26549 38.2919 0ZM101.364 3.55254C88.0695 4.21313 75.4375 9.76544 65.9041 19.1387C56.3706 28.512 50.611 41.0425 49.7358 54.3136C56.791 54.702 63.8687 53.6974 70.5647 51.3572C77.2608 49.0171 83.4441 45.3871 88.7616 40.6747C94.079 35.9623 98.4266 30.2597 101.556 23.8924C104.685 17.5252 106.535 10.618 107 3.56532C105.124 3.46275 103.243 3.45848 101.364 3.55254ZM6.27313 30.4522C4.16735 30.4278 2.06482 30.6248 0 31.04C0.776941 34.932 2.31077 38.6325 4.5139 41.9302C6.71703 45.2278 9.54632 48.0581 12.8402 50.2593C16.1341 52.4605 19.8282 53.9896 23.7114 54.7592C27.5946 55.5288 31.591 55.5239 35.4723 54.7448C34.1172 47.9541 30.4776 41.8359 25.1625 37.4138C19.8473 32.9918 13.179 30.5342 6.27313 30.4522ZM43.0262 53.0165C41.5737 53.0166 40.1807 53.5952 39.1537 54.6251C38.1266 55.655 37.5496 57.0518 37.5496 58.5083C37.5496 59.9647 38.1266 61.3616 39.1537 62.3914C40.1807 63.4213 41.5737 63.9999 43.0262 64C44.4787 63.9999 45.8717 63.4213 46.8987 62.3915C47.9258 61.3616 48.5028 59.9647 48.5028 58.5083C48.5028 57.0518 47.9258 55.655 46.8987 54.6251C45.8717 53.5952 44.4787 53.0166 43.0262 53.0165Z" fill="#051F20"/>
</svg>
